<svg xmlns="http://www.w3.org/2000/svg" fill="none" viewBox="0 0 48 17"><g fill="#EBEBEB" clip-path="url(#a)"><path d="M0 13.4693V.673462h3.7743c1.32738 0 2.48715.225698 3.47263.664558.98547.44512 1.74972 1.13476 2.29944 2.06889.54303.93414.81783 2.13787.81783 3.59863 0 1.46704-.2681 2.67703-.81113 3.62996-.53631.953-1.28715 1.6677-2.24581 2.1316-.95866.4639-2.07151.6959-3.34525.6959H0v.0063Zm3.10391-2.3385h.50279c.71062 0 1.34079-.1317 1.8771-.395.53631-.2633.95866-.6959 1.26033-1.29773.30168-.60187.44917-1.41062.44917-2.43253 0-1.02191-.14749-1.82439-.44917-2.40117-.30167-.57679-.71731-.99057-1.25363-1.23507-.53631-.24451-1.16648-.36363-1.87709-.36363h-.5095v8.12513Zm9.92849 2.3385L11.2089.673462h3.2112l.4224 6.808558c.0134.5517.0268 1.07833.0335 1.59242.0067.50782.0201 1.05326.0335 1.63006h.0871c.1006-.5768.2079-1.12224.3285-1.63633.1207-.51409.2347-1.04072.3486-1.57988l.9252-3.57355h1.9709l.8581 3.57355c.114.52036.228 1.04071.3486 1.56107.1207.51409.228 1.07204.3285 1.65514h.0872c.0134-.5893.0268-1.14105.0402-1.65514l.0402-1.56107.3553-6.814828h3.0034L21.9553 13.4693h-3.3184l-.7978-3.96227c-.0871-.40751-.1609-.81502-.2279-1.23507-.0671-.42005-.1207-.81502-.1475-1.19745h-.0603c-.0403.38243-.0939.7774-.1475 1.19745-.0537.42005-.1274.83383-.2079 1.23507l-.7977 3.96227h-3.2179Zm15.4257 0V3.10598h-4.0894V.673462h11.2894V3.10598h-4.0894V13.4693h-3.1106ZM38.6748 13.4693h9.3251v2.8776h-9.3251v-2.8776Z"/></g><defs><clipPath id="a"><path fill="#fff" d="M0 .673462h48v15.6735H0z"/></clipPath></defs></svg>