<svg xmlns="http://www.w3.org/2000/svg" fill="none" viewBox="0 0 16 18"><path fill="#EAEAEA" d="M8 2.3508c2.136 0 2.3893.00821 3.2333.04786 2.168.1012 3.1807 1.15624 3.2794 3.36342.0386.86496.046 1.12479.046 3.31556 0 2.19146-.008 2.45056-.046 3.31556-.0994 2.2051-1.1094 3.2622-3.2794 3.3634-.844.0397-1.096.0479-3.2333.0479-2.136 0-2.38933-.0082-3.23267-.0479-2.17333-.1019-3.18066-1.1617-3.27933-3.3641-.03867-.8649-.04667-1.1241-.04667-3.31555 0-2.19076.00867-2.44991.04667-3.31555.09933-2.2065 1.10933-3.26222 3.27933-3.36342C5.61133 2.35901 5.864 2.3508 8 2.3508ZM8 .871826c-2.17267 0-2.44467.009573-3.298.049231C1.79667 1.05781.182 2.71114.0486667 5.69371.00933333 6.5696 0 6.84858 0 9.07695 0 11.3053.00933333 11.585.048 12.4602c.133333 2.9798 1.74533 4.6359 4.65333 4.7727.854.0396 1.126.0492 3.29867.0492 2.1727 0 2.4453-.0096 3.2987-.0492 2.9026-.1368 4.5213-1.7901 4.6526-4.7727.0394-.8752.0487-1.1549.0487-3.38325 0-2.22837-.0093-2.50735-.048-3.38256-.1307-2.97709-1.7447-4.6359-4.6527-4.772649C10.4453.881399 10.1727.871826 8 .871826ZM8 4.86362c-2.26867 0-4.108 1.8865-4.108 4.21333C3.892 11.4038 5.73133 13.291 8 13.291c2.2687 0 4.108-1.8865 4.108-4.21405 0-2.32683-1.8393-4.21333-4.108-4.21333ZM8 11.812c-1.47267 0-2.66667-1.2239-2.66667-2.73505 0-1.51042 1.194-2.73504 2.66667-2.73504s2.6667 1.22462 2.6667 2.73504C10.6667 10.5881 9.47267 11.812 8 11.812Zm4.2707-8.09915c-.5307 0-.9607.44103-.9607.98462s.43.98461.9607.98461c.53 0 .9593-.44102.9593-.98461s-.4293-.98462-.9593-.98462Z"/></svg>