<svg xmlns="http://www.w3.org/2000/svg" fill="none" viewBox="0 0 80 80"><g clip-path="url(#a)"><path fill="url(#b)" d="M18.0542 4.5197h50.2973c6.4359 0 11.6483 5.3316 11.6483 11.9049V50.724c0 6.5776-5.2167 11.9049-11.6483 11.9049v14.7878c0 1.4241-1.13 2.579-2.5233 2.579-.6075 0-1.1895-.2215-1.6483-.6252l-18.972-16.7416H18.0584L6.41016 50.724V16.4246c0-6.57764 5.21664-11.9049 11.64824-11.9049h-.0042Z"/><path fill="#fff" d="M61.9456 0H11.6483C5.21665 0 0 5.3316 0 11.9049v34.2994c0 6.5776 5.21665 11.9049 11.6483 11.9049V72.897c0 1.4241 1.1299 2.579 2.5233 2.579.6075 0 1.1895-.2215 1.6483-.6252l18.9719-16.7416h27.1496c6.4358 0 11.6482-5.3316 11.6482-11.9049V11.9049C73.5896 5.32726 68.373 0 61.9414 0h.0042Z"/><path fill="#fff" d="M58.3008 12.3825H13.271c-1.6423 0-2.9736 1.3607-2.9736 3.0392s1.3313 3.0392 2.9736 3.0392h45.0298c1.6423 0 2.9736-1.3607 2.9736-3.0392s-1.3313-3.0392-2.9736-3.0392Z"/><path fill="url(#c)" d="M58.3008 12.3825H13.271c-1.6423 0-2.9736 1.3607-2.9736 3.0392s1.3313 3.0392 2.9736 3.0392h45.0298c1.6423 0 2.9736-1.3607 2.9736-3.0392s-1.3313-3.0392-2.9736-3.0392Z"/><path fill="#fff" d="M13.271 30.3571h14.8683c1.644 0 2.9737-1.3589 2.9737-3.0392 0-1.6802-1.3297-3.0392-2.9737-3.0392H13.271c-1.644 0-2.9736 1.359-2.9736 3.0392 0 1.6803 1.3296 3.0392 2.9736 3.0392Z"/><path fill="url(#d)" d="M13.271 30.3571h14.8683c1.644 0 2.9737-1.3589 2.9737-3.0392 0-1.6802-1.3297-3.0392-2.9737-3.0392H13.271c-1.644 0-2.9736 1.359-2.9736 3.0392 0 1.6803 1.3296 3.0392 2.9736 3.0392Z"/><path fill="#fff" d="M58.301 24.2787H36.7759c-1.644 0-2.9737 1.359-2.9737 3.0392 0 1.6803 1.3297 3.0392 2.9737 3.0392H58.301c1.644 0 2.9736-1.3589 2.9736-3.0392 0-1.6802-1.3296-3.0392-2.9736-3.0392Z"/><path fill="url(#e)" d="M58.301 24.2787H36.7759c-1.644 0-2.9737 1.359-2.9737 3.0392 0 1.6803 1.3297 3.0392 2.9737 3.0392H58.301c1.644 0 2.9736-1.3589 2.9736-3.0392 0-1.6802-1.3296-3.0392-2.9736-3.0392Z"/><path fill="#fff" d="M44.5667 36.1793H13.271c-1.644 0-2.9736 1.359-2.9736 3.0392 0 1.6802 1.3296 3.0392 2.9736 3.0392h31.2957c1.644 0 2.9737-1.359 2.9737-3.0392 0-1.6802-1.3297-3.0392-2.9737-3.0392Z"/><path fill="url(#f)" d="M44.5667 36.1793H13.271c-1.644 0-2.9736 1.359-2.9736 3.0392 0 1.6802 1.3296 3.0392 2.9736 3.0392h31.2957c1.644 0 2.9737-1.359 2.9737-3.0392 0-1.6802-1.3297-3.0392-2.9737-3.0392Z"/></g><defs><linearGradient id="b" x1="5.96835" x2="81.5393" y1="14.6315" y2="50.1714" gradientUnits="userSpaceOnUse"><stop stop-color="#8C8CC0"/><stop offset=".51" stop-color="#86A8E7"/><stop offset="1" stop-color="#5FFBF1"/></linearGradient><linearGradient id="c" x1="6.92863" x2="87.0218" y1="1.24172" y2="38.9102" gradientUnits="userSpaceOnUse"><stop stop-color="#8C8CC0"/><stop offset=".51" stop-color="#86A8E7"/><stop offset="1" stop-color="#5FFBF1"/></linearGradient><linearGradient id="d" x1="1.2192" x2="64.3971" y1="17.7445" y2="47.4603" gradientUnits="userSpaceOnUse"><stop stop-color="#8C8CC0"/><stop offset=".51" stop-color="#86A8E7"/><stop offset="1" stop-color="#5FFBF1"/></linearGradient><linearGradient id="e" x1="-12.6549" x2="90.5289" y1="-2.25334" y2="46.2758" gradientUnits="userSpaceOnUse"><stop stop-color="#8C8CC0"/><stop offset=".51" stop-color="#86A8E7"/><stop offset="1" stop-color="#5FFBF1"/></linearGradient><linearGradient id="f" x1="-7.84622" x2="80.332" y1="21.1571" y2="62.6259" gradientUnits="userSpaceOnUse"><stop stop-color="#8C8CC0"/><stop offset=".51" stop-color="#86A8E7"/><stop offset="1" stop-color="#5FFBF1"/></linearGradient><clipPath id="a"><path fill="#fff" d="M0 0h80v80H0z"/></clipPath></defs></svg>