<svg xmlns="http://www.w3.org/2000/svg" fill="none" viewBox="0 0 80 80"><g clip-path="url(#a)"><path fill="url(#b)" d="M42.0306 80c20.97 0 37.9696-17.0891 37.9696-38.1696 0-21.0805-16.9996-38.16963-37.9696-38.16963S4.06104 20.7499 4.06104 41.8304C4.06104 62.9109 21.0606 80 42.0306 80Z"/><path fill="#fff" d="M37.9696 0C16.9996 0 0 17.0891 0 38.1696c0 21.0805 16.9996 38.1696 37.9696 38.1696s37.9696-17.0891 37.9696-38.1696C75.9392 17.0891 58.9396 0 37.9696 0Zm-3.8718 15.7587c0-2.1485 1.7345-3.8922 3.8718-3.8922 2.1373 0 3.8717 1.7437 3.8717 3.8922v28.6334c0 2.1485-1.7344 3.8922-3.8717 3.8922s-3.8718-1.7437-3.8718-3.8922V15.7587Zm3.8718 48.7098c-2.2442 0-4.0608-1.8262-4.0608-4.0822 0-2.256 1.8166-4.0822 4.0608-4.0822 2.2441 0 4.0608 1.8262 4.0608 4.0822 0 2.256-1.8167 4.0822-4.0608 4.0822Z"/></g><defs><linearGradient id="b" x1="-39.7367" x2="155.175" y1="2.32206" y2="95.5167" gradientUnits="userSpaceOnUse"><stop offset=".25" stop-color="#8C8CC0"/><stop offset=".41" stop-color="#86A8E7"/><stop offset=".6" stop-color="#5FFBF1"/></linearGradient><clipPath id="a"><path fill="#fff" d="M0 0h80v80H0z"/></clipPath></defs></svg>