<svg xmlns="http://www.w3.org/2000/svg" fill="none" viewBox="0 0 32 32"><g clip-path="url(#a)"><path fill="#2A2A2A" d="M7.22169 1.80789H27.3406c2.5744 0 4.6593 2.13264 4.6593 4.76197V20.2896c0 2.6311-2.0866 4.762-4.6593 4.762v5.9151c0 .5696-.452 1.0316-1.0093 1.0316-.243 0-.4758-.0886-.6593-.2501l-7.5888-6.6966H7.22339l-4.6593-4.762V6.56986c0-2.63107 2.08666-4.76197 4.6593-4.76197h-.0017Z"/><path fill="#fff" d="M24.7782 0H4.6593C2.08666 0 0 2.13264 0 4.76197V18.4817c0 2.6311 2.08666 4.762 4.6593 4.762v5.9151c0 .5696.452 1.0316 1.00935 1.0316.24299 0 .47578-.0886.6593-.2501l7.58875-6.6966h10.8599c2.5743 0 4.6593-2.1327 4.6593-4.762V4.76197C29.4359 2.1309 27.3492 0 24.7766 0h.0016Z"/><path fill="#fff" d="M23.3203 4.953H5.30836c-.65692 0-1.18946.54428-1.18946 1.21568 0 .67139.53254 1.21567 1.18946 1.21567H23.3203c.6569 0 1.1894-.54428 1.1894-1.21567 0-.6714-.5325-1.21568-1.1894-1.21568Z"/><path fill="#2A2A2A" d="M23.3203 4.953H5.30836c-.65692 0-1.18946.54428-1.18946 1.21568 0 .67139.53254 1.21567 1.18946 1.21567H23.3203c.6569 0 1.1894-.54428 1.1894-1.21567 0-.6714-.5325-1.21568-1.1894-1.21568Z"/><path fill="#fff" d="M5.30836 12.1428h5.94734c.6576 0 1.1894-.5435 1.1894-1.2156s-.5318-1.21571-1.1894-1.21571H5.30836c-.6576 0-1.18946.54361-1.18946 1.21571s.53186 1.2156 1.18946 1.2156Z"/><path fill="#2A2A2A" d="M5.30836 12.1428h5.94734c.6576 0 1.1894-.5435 1.1894-1.2156s-.5318-1.21571-1.1894-1.21571H5.30836c-.6576 0-1.18946.54361-1.18946 1.21571s.53186 1.2156 1.18946 1.2156Z"/><path fill="#fff" d="M23.3202 9.71149h-8.61c-.6576 0-1.1894.54361-1.1894 1.21571s.5318 1.2156 1.1894 1.2156h8.61c.6576 0 1.1895-.5435 1.1895-1.2156s-.5319-1.21571-1.1895-1.21571Z"/><path fill="#2A2A2A" d="M23.3202 9.71149h-8.61c-.6576 0-1.1894.54361-1.1894 1.21571s.5318 1.2156 1.1894 1.2156h8.61c.6576 0 1.1895-.5435 1.1895-1.2156s-.5319-1.21571-1.1895-1.21571Z"/><path fill="#fff" d="M17.8266 14.4717H5.30836c-.6576 0-1.18946.5436-1.18946 1.2157s.53186 1.2157 1.18946 1.2157H17.8266c.6576 0 1.1895-.5436 1.1895-1.2157s-.5319-1.2157-1.1895-1.2157Z"/><path fill="#2A2A2A" d="M17.8266 14.4717H5.30836c-.6576 0-1.18946.5436-1.18946 1.2157s.53186 1.2157 1.18946 1.2157H17.8266c.6576 0 1.1895-.5436 1.1895-1.2157s-.5319-1.2157-1.1895-1.2157Z"/></g><defs><clipPath id="a"><path fill="#fff" d="M0 0h32v32H0z"/></clipPath></defs></svg>