<svg xmlns="http://www.w3.org/2000/svg" fill="none" viewBox="0 0 61 80"><g clip-path="url(#a)"><path fill="#2A2A2A" d="M60.7406 29.7737c0 11.5637-7.3385 21.4792-17.7913 25.7301v13.599C42.9493 75.1188 37.85 80 31.5651 80c-6.2848 0-11.3841-4.8812-11.3841-10.8972v-13.599C17.9982 53.9637 2.38965 41.3374 2.38965 29.7737c0-15.4272 13.06825-27.92751 29.17545-27.92751 16.1073 0 29.1755 12.50031 29.1755 27.91851v.009Z"/><path fill="#fff" d="M29.8682 0C13.3689 0 0 12.797 0 28.5813c0 11.8382 7.51279 21.9892 18.2137 26.3409v13.9219C18.2137 75.0029 23.4341 80 29.8682 80c6.434 0 11.6544-4.9971 11.6544-11.1559V54.9222c10.7009-4.3517 18.2137-14.5027 18.2137-26.3409C59.7363 12.797 46.3578 0 29.8682 0Zm-14.65 23.3998c-1.2328-1.1801-1.2328-3.0794 0-4.2595 1.2329-1.1802 3.217-1.1802 4.4499 0l6.5207 6.2417c1.2329 1.1802 1.2329 3.0795 0 4.2596-1.2328 1.1801-3.217 1.1801-4.4499 0l-6.5207-6.2418Zm18.0596 51.7783h-6.8193c-.8476 0-1.5314-.6546-1.5314-1.466 0-.8113.6838-1.4659 1.5314-1.4659h6.8193c.8476 0 1.5315.6546 1.5315 1.4659 0 .8114-.6839 1.466-1.5315 1.466Zm3.5253-4.5823H22.9333c-.8476 0-1.5315-.6546-1.5315-1.4659s.6839-1.466 1.5315-1.466h13.8698c.8476 0 1.5314.6547 1.5314 1.466s-.6838 1.4659-1.5314 1.4659Zm.7994-4.5822H22.1242c-.7609 0-1.3773-.5901-1.3773-1.3184 0-.7284.6164-1.3185 1.3773-1.3185h15.4783c.7609 0 1.3773.5901 1.3773 1.3185 0 .7283-.6164 1.3184-1.3773 1.3184Zm6.906-42.6138-6.5207 6.2418c-1.2329 1.1801-3.2171 1.1801-4.4499 0-1.2329-1.1801-1.2329-3.0794 0-4.2596l6.5207-6.2417c1.2329-1.1802 3.217-1.1802 4.4499 0 1.2329 1.1801 1.2329 3.0794 0 4.2595Z"/></g><defs><clipPath id="a"><path fill="#fff" d="M0 0h60.7407v80H0z"/></clipPath></defs></svg>