<svg xmlns="http://www.w3.org/2000/svg" fill="none" viewBox="0 0 80 80"><path fill="url(#a)" d="M41.8181 80c21.0872 0 38.1818-17.0132 38.1818-38S62.9053 4 41.8181 4C20.7308 4 3.63623 21.0132 3.63623 42S20.7308 80 41.8181 80Z"/><path fill="#fff" d="M38.1818 0C17.0972 0 0 17.0158 0 38s17.0972 38 38.1818 38c21.0846 0 38.1818-17.0158 38.1818-38S59.2664 0 38.1818 0Zm-2.5011 67.3177c-2.2595 0-4.084-1.8158-4.084-4.0645 0-2.2488 1.8245-4.0646 4.084-4.0646 2.2595 0 4.084 1.8158 4.084 4.0646 0 2.2487-1.8245 4.0645-4.084 4.0645Zm16.9885-34.1398c-1.305 2.2607-3.0691 4.0405-5.3165 5.3392-1.8366 1.0462-3.8303 1.7797-6.0293 2.1886-.87.1684-1.5225.9139-1.5587 1.7918v4.8582c-.0967 2.1405-1.885 3.8481-4.0719 3.8481-2.187 0-4.0841-1.8158-4.0841-4.0525v-9.3557c0-1.0703.8821-1.9481 1.9575-1.9481h.2658c1.6795 0 4.5673-.1443 5.9327-.4329 2.1266-.457 3.8423-1.2747 5.1352-2.4412 2.1507-1.912 3.2261-4.5696 3.2261-7.9728 0-3.1746-.9666-5.6879-2.8515-7.5158-1.8971-1.8399-4.3136-2.7538-7.2377-2.7538-1.897 0-3.6127.3969-5.1231 1.2025-1.5104.8178-2.6945 1.9481-3.5282 3.4032-.5679.962-.9304 2.0443-1.1237 3.2589v1.2987c0 1.8519-1.462 3.3671-3.2624 3.3671-.9183 0-1.7157-.3728-2.3078-.9861-.5921-.6012-.9545-1.455-.9545-2.381v-1.3468c0-.0842 0-.1684.012-.2646.1329-.962.3384-1.912.6404-2.8139.5075-1.5994 1.2687-3.0665 2.2716-4.3772 1.0029-1.3228 2.1991-2.4532 3.5886-3.3912 1.3654-.95 2.9241-1.6955 4.6277-2.23667 1.7037-.54114 3.5645-.8057 5.5702-.8057 2.4891 0 4.7244.40886 6.706 1.21456 1.9695.80571 3.6611 1.96011 5.0869 3.43921 1.4016 1.4791 2.477 3.2108 3.2382 5.1829.7612 1.9602 1.1479 4.1127 1.1479 6.4336 0 3.2348-.6525 5.9766-1.9574 8.2494Z"/><defs><linearGradient id="a" x1="-40.3937" x2="154.852" y1="2.66519" y2="96.962" gradientUnits="userSpaceOnUse"><stop offset=".25" stop-color="#8C8CC0"/><stop offset=".41" stop-color="#86A8E7"/><stop offset=".6" stop-color="#5FFBF1"/></linearGradient></defs></svg>