<svg xmlns="http://www.w3.org/2000/svg" fill="none" viewBox="0 0 61 80"><g clip-path="url(#a)"><path fill="url(#b)" d="M60.7406 29.7737c0 11.5637-7.3385 21.4792-17.7913 25.7301v13.599C42.9493 75.1188 37.85 80 31.5651 80c-6.2848 0-11.3841-4.8812-11.3841-10.8972v-13.599C17.9982 53.9637 2.38965 41.3374 2.38965 29.7737c0-15.4272 13.06825-27.92751 29.17545-27.92751 16.1073 0 29.1755 12.50031 29.1755 27.91851v.009Z"/><path fill="#fff" d="M29.1755 0C13.0589 0 0 12.5003 0 27.9185c0 11.5636 7.33857 21.4792 17.7913 25.73v13.599c0 6.016 5.0994 10.8972 11.3842 10.8972s11.3842-4.8812 11.3842-10.8972v-13.599c10.4527-4.2508 17.7913-14.1664 17.7913-25.73C58.351 12.5003 45.2827 0 29.1755 0ZM14.8653 22.8571c-1.2043-1.1527-1.2043-3.008 0-4.1607 1.2043-1.1528 3.1424-1.1528 4.3467 0l6.3695 6.097c1.2043 1.1528 1.2043 3.008 0 4.1608-1.2043 1.1527-3.1424 1.1527-4.3467 0l-6.3695-6.0971Zm17.6408 50.5775h-6.6612c-.8279 0-1.4959-.6394-1.4959-1.4319 0-.7926.668-1.432 1.4959-1.432h6.6612c.8279 0 1.4959.6394 1.4959 1.432 0 .7925-.668 1.4319-1.4959 1.4319Zm3.4435-4.476H22.4014c-.8279 0-1.4959-.6394-1.4959-1.4319s.668-1.4319 1.4959-1.4319h13.5482c.8279 0 1.4959.6394 1.4959 1.4319s-.668 1.4319-1.4959 1.4319Zm.7809-4.4759H21.6111c-.7432 0-1.3454-.5764-1.3454-1.2879 0-.7114.6022-1.2878 1.3454-1.2878h15.1194c.7432 0 1.3454.5764 1.3454 1.2878 0 .7115-.6022 1.2879-1.3454 1.2879Zm6.7458-41.6256-6.3695 6.0971c-1.2043 1.1527-3.1424 1.1527-4.3467 0-1.2043-1.1528-1.2043-3.008 0-4.1608l6.3695-6.097c1.2043-1.1528 3.1424-1.1528 4.3467 0 1.2043 1.1527 1.2043 3.008 0 4.1607Z"/></g><defs><linearGradient id="b" x1="17.1044" x2="50.6329" y1="2.78281" y2="72.7265" gradientUnits="userSpaceOnUse"><stop offset=".41" stop-color="#86A8E7"/><stop offset="1" stop-color="#5FFBF1"/></linearGradient><clipPath id="a"><path fill="#fff" d="M0 0h60.7407v80H0z"/></clipPath></defs></svg>