<svg xmlns="http://www.w3.org/2000/svg" fill="none" viewBox="0 0 80 80"><path fill="#2A2A2A" d="M43.595 80C63.7009 80 80 63.4464 80 43.0266 80 22.6067 63.7009 6.05316 43.595 6.05316c-20.106 0-36.40506 16.55354-36.40506 36.97344C7.18994 63.4464 23.489 80 43.595 80Z"/><path fill="#fff" d="M39.5475 46.145c1.2984-.3065 2.4755-.8459 3.4584-1.7163L32.7155 34.0326c-.813 1.0543-1.2863 2.2803-1.529 3.6656l8.361 8.4468ZM45.7123 37.1342c.0122-1.8021-.1941-3.7637-.449-5.8478-1.978-.2329-3.8831-.38-5.6427-.2942l6.0796 6.142h.0121ZM37.4715 31.2496c-1.3348.2697-2.5362.7601-3.5555 1.5692l10.2297 10.3348c.7524-1.0788 1.1892-2.3416 1.3955-3.7514l-8.0697-8.1526ZM54.3161 27.0078l-4.7326-4.7812c0 1.4098.1092 2.881.2791 4.4011 1.529.1839 3.0216.3311 4.4535.3678v.0123ZM56.6823 26.9588c1.1407-.0858 2.2085-.2942 3.2036-.6498l-9.3681-9.4643c-.4005.9562-.6553 1.9983-.7888 3.0894l6.9533 7.0247ZM27.0853 54.8125c-.0121-1.275-.1213-2.6112-.2791-3.9843-1.3712-.1594-2.7182-.2942-4.0166-.3555l4.2957 4.3398Z"/><path fill="#fff" d="M38.3463 0C17.1709 0 0 17.3473 0 38.7402s17.1709 38.7402 38.3463 38.7402c21.1753 0 38.3462-17.3473 38.3462-38.7402S59.5216 0 38.3463 0Zm12.147 31.9116c.6431 5.7865.7645 11.5485-3.4706 15.8271-4.0773 4.1192-9.6472 4.2418-14.9987 3.7147.4975 5.529.2548 11.242-4.0409 15.5941-.9951 1.0053-2.6212 1.0053-3.6162 0-.9951-1.0053-.9951-2.6481 0-3.6534.449-.4536.8251-.9317 1.1406-1.4343L15.4477 51.7966c-.631.3555-1.2256.7969-1.7717 1.3363-.995 1.0053-2.6211 1.0053-3.6162 0-.99504-1.0053-.99504-2.6481 0-3.6533 4.4535-4.4993 10.436-4.5116 16.1273-3.9108-.6432-5.7866-.7645-11.5485 3.4706-15.8271 4.2351-4.2786 9.6472-4.2418 14.9987-3.7147-.4975-5.529-.2548-11.242 4.0409-15.5941.9951-1.0053 2.6212-1.0053 3.6162 0 .9951 1.0053.9951 2.648 0 3.6533-.364.3678-.6795.7724-.9586 1.1892l10.1569 10.2612c.5339-.331 1.0314-.711 1.4926-1.1769.995-1.0052 2.6211-1.0052 3.6162 0 .995 1.0053.995 2.6481 0 3.6534-4.4535 4.4992-10.436 4.5115-16.1273 3.9108v-.0123Z"/><path fill="#fff" d="M20.3859 50.4849c-1.1528.0735-2.245.2452-3.2643.5762l9.174 9.2682c.3761-.9808.5824-2.0474.6916-3.163l-6.6013-6.6692v-.0122ZM30.9802 39.9293c-.0485 1.9125.1578 4.0212.4369 6.2647 2.1236.2451 4.1744.4045 6.031.2697l-6.4679-6.5344Z"/></svg>