<svg xmlns="http://www.w3.org/2000/svg" fill="none" viewBox="0 0 21 12"><path fill="url(#a)" d="m8.4982 0 .52878 2.325c-.40288.2-.83094.6375-1.28417 1.3125-.42806.675-.67986 1.4125-.7554 2.2125l2.56835.4125V12H0V8.5125C0 6.2125.667266 4.3 2.0018 2.775 3.36151 1.25 5.52698.325 8.4982 0Zm11.4442 0 .5288 2.325c-.4029.2-.8309.6375-1.2841 1.3125-.4281.675-.6799 1.4125-.7554 2.2125L21 6.2625V12h-9.5558V8.5125c0-2.3.6673-4.2125 2.0018-5.7375C14.8058 1.25 16.9712.325 19.9424 0Z"/><defs><linearGradient id="a" x1="0" x2="20.2655" y1="0" y2="11.6636" gradientUnits="userSpaceOnUse"><stop stop-color="#8C8CC0"/><stop offset=".505208" stop-color="#86A8E7"/><stop offset="1" stop-color="#5FFBF1"/></linearGradient></defs></svg>