<svg xmlns="http://www.w3.org/2000/svg" fill="none" viewBox="0 0 16 14"><path fill="#EAEAEA" d="M16 1.98786c-.5887.26804-1.2213.44855-1.8853.52992.678-.41641 1.1986-1.07624 1.4433-1.862568-.634.385638-1.3367.665978-2.0847.817098-.598-.654363-1.452-1.063252-2.396-1.063252-2.1193 0-3.67663 2.028032-3.19797 4.133332C5.152 4.40222 2.73333 3.06205 1.114 1.02513.254 2.53829.668 4.51778 2.12933 5.52017c-.53733-.01778-1.044-.16889-1.485997-.4212-.036 1.55966 1.053997 3.0188 2.632667 3.34359-.462.12855-.968.15863-1.48267.05744.41734 1.33743 1.62934 2.3104 3.06667 2.3378-1.38 1.1097-3.11867 1.6054-4.86 1.3948 1.45267.9553 3.17867 1.5125 5.032 1.5125 6.0947 0 9.538-5.27929 9.33-10.01433.6413-.47522 1.198-1.06804 1.638-1.74291Z"/></svg>