<svg xmlns="http://www.w3.org/2000/svg" fill="none" viewBox="0 0 16 18"><path fill="#EAEAEA" fill-rule="evenodd" d="M8 .871826c4.4153 0 8 3.676584 8 8.205124 0 4.52855-3.5847 8.20515-8 8.20515-4.41533 0-8-3.6766-8-8.20515C0 4.54841 3.58467.871826 8 .871826ZM9.70467 11.812h-3.41c.364 1.682.96066 2.813 1.70533 3.9275.796-1.1904 1.36067-2.3316 1.70467-3.9275Zm-4.77134 0H1.88867c.824 1.9316 2.46933 3.3997 4.50333 3.9084-.69867-1.185-1.18867-2.5012-1.45867-3.9084Zm9.17797 0h-3.0446c-.2607 1.3593-.73 2.6578-1.45003 3.8933 2.00803-.5217 3.67803-1.9795 4.49463-3.8933ZM4.77467 7.70943h-3.308c-.178.89778-.178 1.8359 0 2.73507h3.27666c-.07933-.90874-.06733-1.82703.03134-2.73507Zm5.10733 0H6.11733c-.11.90667-.12333 1.82701-.03533 2.73507h3.83533c.08867-.90806.074-1.82772-.03533-2.73507Zm4.6513 0h-3.3086c.0986.90804.1106 1.82633.032 2.73507h3.2766c.1734-.87866.182-1.81062 0-2.73507ZM6.42933 2.42465C4.378 2.92516 2.718 4.39798 1.88867 6.34191h3.102c.29-1.39624.78533-2.72478 1.43866-3.91726Zm1.57-.03282c-.726 1.21025-1.27333 2.36102-1.642 3.95008H9.642c-.356-1.53572-.89133-2.69949-1.64267-3.95008Zm1.57867.04718c.6753 1.23897 1.1553 2.57094 1.4307 3.9029h3.1026c-.8213-1.92547-2.508-3.39008-4.5333-3.9029Z" clip-rule="evenodd"/></svg>